# xmcd
#
# Track frame offsets: 
#        150
#        12085
#        27682
#        40755
#        53575
#        75895
#        92540
#        107967
#        120447
#        132302
#        152757
#        164805
#        177552
#        190485
#
# Disc length: 2832 seconds
#
# Revision: 0
# Processed by: cddbd v1.5.2PL0 Copyright (c) Steve Scherf et al.
# Submitted via: ExactAudioCopy v0.95a5
#
DISCID=b20b0e0e
DTITLE=John Denver - Remains Beautiful Songs
DYEAR=1990
DGENRE=Vocal
TTITLE0=Take Me Home Country Roads
TTITLE1=Leaving On A Jet Plane
TTITLE2=Peerhaps Love(Duet With Placido Domingo)
TTITLE3=Annie's Song
TTITLE4=Sunshine On My Shoulders
TTITLE5=Fly Away
TTITLE6=Calypso
TTITLE7=Sweet Surrender
TTITLE8=On The Road
TTITLE9=Back Home Again
TTITLE10=Thank God I'm A Country Boy
TTITLE11=Follow Me
TTITLE12=Farwell Andoromeda
TTITLE13=Rocky Mountain High
EXTD=
EXTT0=
EXTT1=
EXTT2=
EXTT3=
EXTT4=
EXTT5=
EXTT6=
EXTT7=
EXTT8=
EXTT9=
EXTT10=
EXTT11=
EXTT12=
EXTT13=
PLAYORDER=
